# xmcd CD database file
#
# Track frame offsets:
#	150
#	12031
#	23555
#	35131
#	47467
#	59988
#	73292
#	84122
#	97199
#	109771
#	122020
#	137070
#
# Disc length: 1999 seconds
#
# Revision: 3
# Processed by: cddbd v1.5.2PL0 Copyright (c) Steve Scherf et al.
# Submitted via: CDex 1.79
#
DISCID=a307cd0c
DTITLE=Amber Digby - Passion, Pride, and What Might Have Been
DYEAR=2008
DGENRE=Country
TTITLE0=How You Drink The Wine
TTITLE1=Love Is The Foundation
TTITLE2=I Can't Get Used To Being Lonely
TTITLE3=Deep As Your Pocket
TTITLE4=She Didn`t Color Daddy
TTITLE5=One Kiss Away From Loneliness
TTITLE6=Soakin' Wet
TTITLE7=Let Me Be The Judge
TTITLE8=Bring Your Love Back To Me
TTITLE9=Take Me Back Again
TTITLE10=You Snap Your Fingers (And I'm Back In Your Hands)
TTITLE11=We're The Kind Of People (That Make The Jukebox Play)
EXTD=YEAR: 2008
EXTT0=
EXTT1=
EXTT2=
EXTT3=
EXTT4=
EXTT5=
EXTT6=
EXTT7=
EXTT8=
EXTT9=
EXTT10=
EXTT11=
PLAYORDER=
